<svg width="160" height="32" viewBox="0 0 160 32" fill="none" xmlns="http://www.w3.org/2000/svg">
<g clip-path="url(#clip0_1_21)">
<path fill-rule="evenodd" clip-rule="evenodd" d="M139.242 31.0536H144.57V0.0889893H139.242V31.0536Z" fill="#282828"/>
<path fill-rule="evenodd" clip-rule="evenodd" d="M146.946 15.6243H159.899V10.2439H146.946V15.6243Z" fill="#282828"/>
<path fill-rule="evenodd" clip-rule="evenodd" d="M157.276 25.4008C156.367 25.0772 155.531 24.5708 154.791 23.8956C154.678 23.7848 154.579 23.6863 154.491 23.6068C154.374 23.4892 154.282 23.3882 154.179 23.2676C153.504 22.5249 153 21.6791 152.685 20.7569C152.437 20.0765 152.299 19.3483 152.275 18.5951V18.1254H146.946V18.5933C146.962 19.3548 147.04 20.1116 147.177 20.8395C147.354 21.7273 147.62 22.5964 147.968 23.4214C148.362 24.3284 148.88 25.1998 149.508 26.0101C149.864 26.4749 150.266 26.9372 150.702 27.3844C151.068 27.7529 151.453 28.1022 151.845 28.4216L152.232 28.7284C152.989 29.3045 153.8 29.7828 154.64 30.148C155.458 30.4954 156.323 30.7587 157.209 30.93C157.924 31.0684 158.686 31.1504 159.472 31.1737H159.899V25.806H159.478C158.697 25.7824 157.958 25.646 157.276 25.4008Z" fill="#282828"/>
<path fill-rule="evenodd" clip-rule="evenodd" d="M17.8443 5.21353V19.574C17.8365 19.9454 17.8011 20.3087 17.7393 20.6568C17.5579 21.5746 17.1763 22.4181 16.604 23.1673C16.4252 23.4005 16.229 23.6299 16.0367 23.8311C15.8167 24.0452 15.586 24.2445 15.3474 24.4271C14.5952 25.0018 13.7603 25.3845 12.8655 25.5648C12.5086 25.628 12.1368 25.6697 11.7867 25.6857L11.4779 25.6863C11.0869 25.6705 10.7145 25.631 10.3646 25.5693C9.44654 25.3862 8.60474 25.0024 7.85914 24.4276C7.62555 24.2478 7.39697 24.0517 7.19826 23.8606C6.98199 23.6353 6.7834 23.4035 6.60309 23.1667C6.03063 22.4193 5.64971 21.5814 5.47107 20.6768C5.40739 20.3185 5.36616 19.9498 5.35063 19.6079L5.35004 5.21353H0V19.7473C0.00812512 20.062 0.0325005 20.3869 0.0709753 20.6833C0.113393 21.1523 0.180425 21.6146 0.271235 22.0627C0.366587 22.4771 0.487627 22.8867 0.630414 23.2755C0.941437 24.1953 1.38198 25.0721 1.94119 25.8851C2.13308 26.1662 2.34804 26.4565 2.57997 26.7483C2.82838 27.0524 3.10906 27.355 3.39081 27.6217C3.69335 27.9332 4.00031 28.2163 4.30703 28.4677C4.58472 28.6969 4.87113 28.9174 5.15898 29.1233C5.95942 29.6704 6.8306 30.1109 7.74587 30.4312C8.56161 30.7066 9.43425 30.9006 10.3377 31.0072C10.6361 31.0299 10.964 31.0458 11.3061 31.0536H11.9283C12.2617 31.0454 12.5793 31.0291 12.8987 31.0043C13.7892 30.9162 14.6531 30.7228 15.4633 30.4304C16.3708 30.1099 17.24 29.6674 18.0482 29.1146C18.3364 28.9141 18.6234 28.6986 18.9248 28.4566C19.2065 28.2128 19.5006 27.9376 19.7948 27.6425C20.1003 27.3444 20.3834 27.0395 20.6374 26.7343C20.8575 26.4577 21.0754 26.1683 21.2828 25.8773C21.8298 25.0699 22.2683 24.1964 22.5846 23.2842C22.8604 22.472 23.054 21.5911 23.1602 20.6669L23.2068 19.7099L23.2063 5.21353H17.8443Z" fill="#282828"/>
<path fill-rule="evenodd" clip-rule="evenodd" d="M42.611 18.0587C42.3893 18.4247 42.1145 18.773 41.7923 19.0968C41.4705 19.4187 41.129 19.691 40.7774 19.9064C40.4066 20.1205 40.0473 20.2835 39.7351 20.3803C39.7019 20.3904 39.6707 20.398 39.6352 20.4064C39.2962 20.4819 38.7854 20.5325 38.0719 20.5612L33.9616 20.5618H33.5035V10.5811H38.0525C39.1284 10.6049 40.0424 10.8326 40.7724 11.2581C41.1274 11.4595 41.4707 11.7252 41.7916 12.0464C42.1144 12.37 42.3869 12.7182 42.6016 13.0812C43.009 13.7885 43.2275 14.5832 43.2516 15.4441L43.2518 15.6941C43.2281 16.5668 43.0124 17.361 42.611 18.0587ZM48.3087 12.9865C48.0816 12.069 47.7236 11.1947 47.245 10.3891C46.9031 9.80906 46.4957 9.25662 46.034 8.74578C45.8883 8.5745 45.7362 8.41297 45.5913 8.27503C45.4197 8.09533 45.2639 7.94331 45.1093 7.80477C44.5881 7.33064 44.0296 6.91815 43.4485 6.57848C42.641 6.09582 41.7731 5.74038 40.8682 5.52143C40.0689 5.31693 39.1348 5.21353 38.0899 5.21353H28.14V31.0536H33.5035V25.942H38.0899C39.1198 25.942 40.0553 25.8421 40.8702 25.6452C41.7729 25.4107 42.6383 25.0487 43.4401 24.57C44.0267 24.2265 44.5865 23.8138 45.1056 23.3424C45.2605 23.2023 45.4156 23.0554 45.5709 22.9003C45.7236 22.7467 45.8733 22.5928 46.0307 22.4251C46.4942 21.9044 46.908 21.341 47.2576 20.7537C47.7272 19.9576 48.0816 19.0841 48.3109 18.1575C48.4802 17.4361 48.5785 16.6724 48.6026 15.8899L48.6019 15.2451C48.5783 14.4683 48.4798 13.7069 48.3087 12.9865Z" fill="#282828"/>
<path fill-rule="evenodd" clip-rule="evenodd" d="M98.8199 23.4707C97.3401 24.9612 95.6075 25.6858 93.5222 25.6858C91.4298 25.6858 89.6928 24.9611 88.2135 23.4699C86.7415 21.988 86.0257 20.2423 86.0257 18.1331C86.0257 16.0251 86.7407 14.2763 88.2114 12.7871C88.3888 12.6093 88.5719 12.4404 88.7584 12.2847C90.0694 11.1822 91.5677 10.6249 93.3383 10.581L93.7175 10.5808C95.7189 10.63 97.3878 11.3505 98.8199 12.7836C100.301 14.2752 101.02 16.0249 101.02 18.1331C101.02 20.2418 100.301 21.9876 98.8199 23.4707ZM106.129 15.5442C105.96 14.6545 105.694 13.7872 105.339 12.9697C104.946 12.0611 104.435 11.1884 103.821 10.3755L103.716 10.2586C103.371 9.81226 102.999 9.38337 102.602 8.97466C102.192 8.57046 101.764 8.18854 101.33 7.84128L101.197 7.73801C100.4 7.13149 99.5412 6.62716 98.6466 6.23994C97.8334 5.89148 96.9715 5.62824 96.0848 5.45768C95.3715 5.31938 94.6139 5.23718 93.8334 5.2131L93.2048 5.21322C92.4367 5.23766 91.6809 5.31974 90.9613 5.45768C90.0764 5.62764 89.2137 5.89136 88.3971 6.24126C87.4924 6.63209 86.625 7.15123 85.8205 7.78411L85.7988 7.80289C85.3296 8.16374 84.8822 8.55818 84.4629 8.98124C84.0961 9.34986 83.7481 9.74142 83.4287 10.1454L83.1254 10.5366C82.5536 11.3004 82.0792 12.1206 81.716 12.9723C81.3708 13.7905 81.1096 14.6572 80.9406 15.5481C80.8429 16.0401 80.7728 16.5577 80.7324 17.0879C80.7176 17.3265 80.7046 17.5736 80.6971 17.8435L80.6981 18.4785C80.721 19.2366 80.8022 19.9903 80.9394 20.7139C81.1096 21.6088 81.3724 22.4805 81.7211 23.305C82.1213 24.2077 82.6394 25.0789 83.2605 25.8922C83.6173 26.3568 84.0204 26.8161 84.4584 27.2569C84.8831 27.6924 85.3266 28.0922 85.777 28.4456L85.8362 28.4965C86.6341 29.1216 87.4978 29.6376 88.3987 30.0261C89.2137 30.3749 90.0756 30.6389 90.9631 30.8103C91.6853 30.9483 92.4499 31.03 93.2358 31.0533H93.8537C94.1507 31.0451 94.4459 31.0289 94.7297 31.0051C95.1876 30.9717 95.6384 30.9068 96.0725 30.8118C96.9697 30.6387 97.836 30.3742 98.6493 30.0251C99.4908 29.6618 100.306 29.1832 101.07 28.6024L101.466 28.2983C101.859 27.9779 102.244 27.6278 102.609 27.2608C103.018 26.8475 103.4 26.4209 103.744 25.9931L103.848 25.8566C104.449 25.0536 104.952 24.1915 105.34 23.2961C105.695 22.4772 105.962 21.604 106.133 20.7004C106.252 19.9789 106.326 19.2193 106.349 18.4463V17.8131C106.325 17.0339 106.251 16.2691 106.129 15.5442Z" fill="#282828"/>
<path fill-rule="evenodd" clip-rule="evenodd" d="M129.414 23.4684C129.318 23.5656 129.218 23.6621 129.12 23.7536C128.365 24.4431 127.525 24.9564 126.624 25.2806C125.933 25.5255 125.204 25.6617 124.454 25.6853L123.833 25.6859C123.053 25.6621 122.311 25.5262 121.622 25.2817C120.719 24.9568 119.881 24.445 119.129 23.76C119.024 23.6618 118.924 23.5652 118.831 23.471C118.729 23.3681 118.636 23.2674 118.533 23.1448C117.862 22.4066 117.358 21.5612 117.04 20.6372C116.792 19.9582 116.654 19.2298 116.63 18.475L116.629 17.8489C116.654 17.0552 116.794 16.304 117.047 15.6109C117.359 14.7018 117.869 13.8523 118.562 13.0893C118.633 13.0026 118.727 12.9011 118.83 12.797C118.925 12.7002 119.024 12.6055 119.121 12.5142C119.876 11.8251 120.721 11.3174 121.635 11.0045C122.313 10.7481 123.044 10.6051 123.8 10.5811L124.423 10.5808C125.192 10.6044 125.935 10.7507 126.638 11.0157C127.301 11.2404 127.939 11.5783 128.531 12.0178C128.721 12.1619 128.919 12.3289 129.123 12.5151C129.18 12.5665 129.246 12.6294 129.316 12.7L129.502 12.8884L133.287 9.06782L133.15 8.93057C132.816 8.60139 132.473 8.29097 132.13 8.00883L131.707 7.67614C130.936 7.09779 130.107 6.61404 129.25 6.24018C128.438 5.8916 127.577 5.62824 126.687 5.45768C125.968 5.3195 125.207 5.23718 124.426 5.2131L123.797 5.21322C123.029 5.23766 122.273 5.31998 121.553 5.45768C120.674 5.628 119.811 5.89221 118.986 6.24283C118.091 6.6327 117.23 7.15147 116.424 7.78423L116.404 7.80229C115.931 8.16651 115.477 8.56384 115.048 8.98835C114.694 9.35102 114.352 9.74115 114.033 10.1454L113.713 10.5443C113.154 11.3 112.685 12.1171 112.324 12.968C111.967 13.7906 111.701 14.6596 111.532 15.5516C111.394 16.2682 111.317 17.0379 111.301 17.8397V18.4731C111.317 19.2345 111.394 19.9895 111.532 20.7137C111.702 21.6087 111.968 22.478 112.323 23.2974C112.719 24.209 113.236 25.0796 113.86 25.8844C114.205 26.3457 114.606 26.8085 115.055 27.2618C115.423 27.6319 115.808 27.9817 116.201 28.3012L116.587 28.6085C117.344 29.184 118.155 29.6621 118.995 30.0278C119.813 30.3756 120.675 30.6389 121.556 30.8107C122.278 30.9484 123.043 31.03 123.828 31.0534H124.447C125.214 31.0296 125.969 30.9476 126.688 30.8096C127.575 30.6389 128.438 30.3747 129.254 30.0245C130.094 29.6591 130.908 29.1777 131.675 28.5939L131.785 28.5095L131.816 28.5075L131.842 28.4827C132.332 28.0957 132.773 27.7076 133.2 27.2861L133.363 27.098C133.715 26.7383 134.035 26.3756 134.32 26.0137L130.045 22.7613C129.936 22.8963 129.817 23.0322 129.678 23.1812C129.609 23.2647 129.514 23.3674 129.414 23.4684Z" fill="#282828"/>
<path fill-rule="evenodd" clip-rule="evenodd" d="M69.0813 19.0963C68.7611 19.4187 68.4208 19.6912 68.0705 19.9062C67.3648 20.318 66.5789 20.5378 65.7319 20.5613H64.3618V20.534H62.7589H62.6069H59.3071H59.155H59.0029V10.5807H65.7034C66.5687 10.6043 67.3644 10.833 68.0724 11.2609C68.4216 11.4601 68.7622 11.7249 69.0813 12.046C69.4015 12.368 69.673 12.7161 69.8877 13.0805C70.2943 13.79 70.5116 14.5846 70.5346 15.4441L70.5351 15.6931C70.5116 16.5661 70.297 17.3603 69.8969 18.0583C69.6753 18.4254 69.4015 18.7736 69.0813 19.0963ZM70.7232 24.5697C71.3065 24.2266 71.8727 23.8095 72.4068 23.3294L72.8758 22.8803L73.3035 22.4243C73.7646 21.9036 74.1815 21.3378 74.5409 20.7456C74.9984 19.9531 75.3507 19.0802 75.5862 18.1539C75.7537 17.4401 75.8518 16.6773 75.877 15.8891L75.8763 15.244C75.8518 14.4645 75.7527 13.7019 75.582 12.9816C75.3483 12.0665 74.988 11.1932 74.5119 10.3887C74.1709 9.80817 73.7652 9.25546 73.306 8.74547C73.1593 8.57275 73.0131 8.41314 72.8559 8.25402C72.6954 8.09273 72.542 7.94155 72.3856 7.79266C71.8667 7.32733 71.3095 6.9182 70.7336 6.5795C69.9367 6.0961 69.0713 5.74006 68.1587 5.52015C67.4347 5.34021 66.6704 5.23681 65.8865 5.2131L53.6737 5.21322V31.0533H59.0029V25.8765H59.1551H59.3071H62.6069H62.7589H62.911V25.8913L67.185 31.0533H74.607L69.6406 25.1549L70.1503 24.8898C70.3409 24.7906 70.5336 24.6828 70.7232 24.5697Z" fill="#282828"/>
</g>
<defs>
<clipPath id="clip0_1_21">
<rect width="160" height="32" fill="white"/>
</clipPath>
</defs>
</svg>
